<?xml version="1.0" encoding="UTF-8"?>
<svg height="16px" viewBox="0 0 16 16" width="16px" xmlns="http://www.w3.org/2000/svg" xmlns:xlink="http://www.w3.org/1999/xlink">
    <filter id="a" height="100%" width="100%" x="0%" y="0%">
        <feColorMatrix color-interpolation-filters="sRGB" values="0 0 0 0 1 0 0 0 0 1 0 0 0 0 1 0 0 0 1 0"/>
    </filter>
    <mask id="b">
        <g filter="url(#a)">
            <rect fill-opacity="0.1" height="19.2" width="19.2" x="-1.6" y="-1.6"/>
        </g>
    </mask>
    <clipPath id="c">
        <rect height="152" width="192"/>
    </clipPath>
    <mask id="d">
        <g filter="url(#a)">
            <rect fill-opacity="0.1" height="19.2" width="19.2" x="-1.6" y="-1.6"/>
        </g>
    </mask>
    <clipPath id="e">
        <rect height="152" width="192"/>
    </clipPath>
    <g fill="#241f31">
        <path d="m 2 1 c -1.089844 0 -2 0.910156 -2 2 v 3 c 0 1.089844 0.910156 2 2 2 h 4 c 1.089844 0 2 -0.910156 2 -2 v -3 c 0 -1.089844 -0.910156 -2 -2 -2 z m 0 2 h 4 v 3 h -4 z m 0 0"/>
        <path d="m 2 9 c -1.089844 0 -2 0.910156 -2 2 v 2 c 0 1.089844 0.910156 2 2 2 h 4 c 1.089844 0 2 -0.910156 2 -2 v -2 c 0 -1.089844 -0.910156 -2 -2 -2 z m 0 2 h 4 v 2 h -4 z m 0 0"/>
        <path d="m 11 1 c -1.089844 0 -2 0.910156 -2 2 v 10 c 0 1.089844 0.910156 2 2 2 h 3 c 1.089844 0 2 -0.910156 2 -2 v -10 c 0 -1.089844 -0.910156 -2 -2 -2 z m 0 2 h 3 v 10 h -3 z m 0 0"/>
    </g>
    <g mask="url(#b)">
        <g clip-path="url(#c)" transform="matrix(1 0 0 1 -168 -16)">
            <path d="m 128 114.65625 c -0.082031 4.089844 -3.378906 7.34375 -7.492188 7.34375 h -48.507812 l 48.003906 2 h 0.503906 c 3.246094 0 6.058594 -1.8125 7.492188 -4.480469 z m 0 0"/>
        </g>
    </g>
    <g mask="url(#d)">
        <g clip-path="url(#e)" transform="matrix(1 0 0 1 -168 -16)">
            <path d="m 128 118.65625 c -0.082031 4.089844 -3.378906 7.34375 -7.492188 7.34375 h -38.507812 l 38.003906 2 h 0.503906 c 3.246094 0 6.058594 -1.8125 7.492188 -4.480469 z m 0 0"/>
        </g>
    </g>
</svg>
