<?xml version="1.0" encoding="UTF-8" standalone="no"?>
<svg
   height="128px"
   width="128px"
   viewBox="0 0 128 128"
   version="1.1"
   id="svg17"
   sodipodi:docname="photo.svg"
   xml:space="preserve"
   inkscape:version="1.3.2 (091e20ef0f, 2023-11-25)"
   xmlns:inkscape="http://www.inkscape.org/namespaces/inkscape"
   xmlns:sodipodi="http://sodipodi.sourceforge.net/DTD/sodipodi-0.dtd"
   xmlns:xlink="http://www.w3.org/1999/xlink"
   xmlns="http://www.w3.org/2000/svg"
   xmlns:svg="http://www.w3.org/2000/svg"><sodipodi:namedview
     id="namedview17"
     pagecolor="#ffffff"
     bordercolor="#000000"
     borderopacity="0.25"
     inkscape:showpageshadow="2"
     inkscape:pageopacity="0.0"
     inkscape:pagecheckerboard="0"
     inkscape:deskcolor="#d1d1d1"
     showguides="false"
     inkscape:zoom="3.017098"
     inkscape:cx="-10.109052"
     inkscape:cy="53.031092"
     inkscape:window-width="1536"
     inkscape:window-height="795"
     inkscape:window-x="0"
     inkscape:window-y="0"
     inkscape:window-maximized="1"
     inkscape:current-layer="svg17" /><defs
     id="defs2"><linearGradient
       gradientUnits="userSpaceOnUse"
       x1="63.747"
       y1="15.186"
       x2="63.747"
       y2="97.254"
       id="gradient-0"
       gradientTransform="matrix(1.002745, -0.000785, 0.004793, 6.134053, 2.84547, -136.938487)"><stop
         offset="0"
         style="stop-color:#c3e0f2;stop-opacity:1;"
         id="stop1" /><stop
         offset="1"
         style="stop-color: rgb(9, 28, 53);"
         id="stop2" /></linearGradient></defs><filter
     id="g"
     height="1"
     width="1"
     x="0"
     y="0"><feColorMatrix
       in="SourceGraphic"
       type="matrix"
       values="0 0 0 0 1 0 0 0 0 1 0 0 0 0 1 0 0 0 1 0"
       id="feColorMatrix2" /></filter><linearGradient
     id="i"
     gradientUnits="userSpaceOnUse"><stop
       offset="0"
       stop-color="#ffffff"
       id="stop3" /><stop
       offset="1"
       stop-color="#ffffff"
       stop-opacity="0"
       id="stop4" /></linearGradient><clipPath
     id="B"><path
       d="m 22 42 h 60 v 61 h -60 z m 0 0"
       id="path4" /></clipPath><clipPath
     id="C"><path
       d="m 22.0625 72.179688 c 0 16.535156 13.402344 29.9375 29.9375 29.9375 s 29.9375 -13.402344 29.9375 -29.9375 c 0 -16.535157 -13.402344 -29.9375 -29.9375 -29.9375 s -29.9375 13.402343 -29.9375 29.9375 z m 0 0"
       id="path5" /></clipPath><mask
     id="D"><g
       filter="url(#g)"
       id="g5"><rect
         fill-opacity="0.768678"
         height="128"
         width="128"
         id="rect5" /></g></mask><linearGradient
     id="E"
     gradientTransform="matrix(0 1.714284 -1.714284 0 501.142633 10.057194)"
     x1="24"
     x2="38"
     y1="238"
     y2="238"
     xlink:href="#i" /><clipPath
     id="F"><rect
       height="152"
       width="192"
       id="rect6" /></clipPath><path
     id="path6"
     d="m 14.251953,6.0507812 c -4.9869949,0 -9.0312499,3.9968798 -9.0312499,8.9218748 v 98.132814 c 0,4.92599 4.044255,8.92383 9.0312499,8.92383 H 84.84375 L 122.56836,84.263672 V 14.972656 c 0,-4.924995 -4.0414,-8.9218748 -9.02539,-8.9218748 z m 4.400391,12.1445308 h 90.214846 c 1.1879,0 2.15039,0.953178 2.15039,2.121094 v 68.502002 l 1.08125,-4.594923 C 109.91377,84.947528 94.741679,95.408731 93.229722,97.048366 L 103.29547,96.525391 H 18.652344 c -1.187905,0 -2.146485,-0.947517 -2.146485,-2.123047 V 20.316406 c 0,-1.167916 0.95858,-2.121094 2.146485,-2.121094 z"
     sodipodi:nodetypes="ssssccssssssccccssss" /><clipPath
     id="f"><path
       d="m 88 88 h 28 v 28 h -28 z m 0 0"
       id="path14" /></clipPath><clipPath
     id="clip-1"><path
       d="m 116 88 l -28 28 h -8 v -36 h 36 z m 0 0"
       id="path15" /></clipPath><linearGradient
     id="h"
     gradientTransform="matrix(0, 0.25, 0.25, 0, 83, 16.000001)"
     gradientUnits="userSpaceOnUse"
     x1="344"
     x2="336"
     y1="76"
     y2="68"><stop
       offset="0"
       style="stop-color:#cccccc;stop-opacity:1;"
       id="stop15" /><stop
       offset="1"
       style="stop-color:#dcdcdc;stop-opacity:1;"
       id="stop16" /></linearGradient><rect
     style="color:#bebebe;display:inline;overflow:visible;visibility:visible;opacity:0.514644;fill:none;stroke:none;stroke-width:0.79375;marker:none;enable-background:accumulate"
     id="rect1555-9"
     width="289.193"
     height="289.193"
     x="444.913"
     y="124.629" /><g
     clip-path="url(#f)"
     transform="matrix(1.7253711,0,0,1.7253711,-77.570915,-78.060787)"
     id="g17"
     style="fill:#000000;fill-opacity:1"><g
       clip-path="url(#clip-1)"
       id="g16"
       style="fill:#000000;fill-opacity:1"><path
         d="m 88,96 v 20.2 c 0,4.418 3.582,7.8 8,7.8 h 20 c 4.418,0 8,-3.582 8,-8 V 96 c 0,-4.418 -3.582,-8 -8,-8 H 96 c -4.418,0 -8,3.582 -8,8 z m 0,0"
         fill="url(#h)"
         id="path16"
         style="fill:#000000;fill-opacity:1" /></g></g><g
     inkscape:groupmode="layer"
     id="layer2"
     inkscape:label="baseplate"
     style="display:none"
     sodipodi:insensitive="true"
     transform="translate(-186.58356,-181.96777)"><g
       style="display:inline;fill:#000000;enable-background:new"
       transform="matrix(7.9911709,0,0,8.0036407,-167.7909,-4846.0776)"
       id="g12027"
       inkscape:export-xdpi="12"
       inkscape:export-ydpi="12" /><rect
       style="display:inline;overflow:visible;visibility:visible;fill:#f0f0f0;fill-opacity:1;fill-rule:nonzero;stroke:none;stroke-width:0.5;marker:none;enable-background:accumulate"
       id="rect13805"
       width="128"
       height="128"
       x="9.2651362e-08"
       y="172"
       inkscape:label="512x512" /><g
       id="g883"
       style="fill:none;fill-opacity:0.25098;stroke:#a579b3;stroke-opacity:1"
       transform="translate(-24,24)" /><g
       id="g900"
       style="fill:none;fill-opacity:0.25098;stroke:#a579b3;stroke-opacity:1"
       transform="translate(-24,24)" /><g
       id="g1168"
       transform="matrix(0.25,0,0,0.25,6.9488522e-8,225)"><rect
         ry="32"
         rx="32"
         y="-180"
         x="96"
         height="448"
         width="319.99979"
         id="rect1110"
         style="opacity:0.1;fill:#2864b0;fill-opacity:1;stroke:none;stroke-width:1;stroke-linecap:butt;stroke-linejoin:miter;stroke-miterlimit:4;stroke-dasharray:none;stroke-dashoffset:0;stroke-opacity:1;marker:none;marker-start:none;marker-mid:none;marker-end:none;paint-order:normal" /><rect
         ry="32"
         rx="32"
         y="-164"
         x="48"
         height="416"
         width="416"
         id="rect1110-8"
         style="display:inline;opacity:0.1;fill:#2864b0;fill-opacity:1;stroke:none;stroke-width:1;stroke-linecap:butt;stroke-linejoin:miter;stroke-miterlimit:4;stroke-dasharray:none;stroke-dashoffset:0;stroke-opacity:1;marker:none;marker-start:none;marker-mid:none;marker-end:none;paint-order:normal;enable-background:new" /><rect
         ry="32"
         rx="32"
         y="-116"
         x="32"
         height="320"
         width="448"
         id="rect1110-8-9"
         style="display:inline;opacity:0.1;fill:#2864b0;fill-opacity:1;stroke:none;stroke-width:1;stroke-linecap:butt;stroke-linejoin:miter;stroke-miterlimit:4;stroke-dasharray:none;stroke-dashoffset:0;stroke-opacity:1;marker:none;marker-start:none;marker-mid:none;marker-end:none;paint-order:normal;enable-background:new" /><circle
         cx="256"
         cy="44"
         r="240"
         id="path1142"
         style="opacity:0.1;fill:#2864b0;fill-opacity:1;stroke:none;stroke-width:1;stroke-linecap:butt;stroke-linejoin:miter;stroke-miterlimit:4;stroke-dasharray:none;stroke-dashoffset:0;stroke-opacity:1;marker:none;marker-start:none;marker-mid:none;marker-end:none;paint-order:normal" /></g><rect
       inkscape:label="0"
       y="172"
       x="160"
       height="16"
       width="16"
       id="symbolic-3"
       style="display:inline;overflow:visible;visibility:visible;fill:#f0f0f0;fill-opacity:1;fill-rule:nonzero;stroke:none;stroke-width:0.5;marker:none;enable-background:accumulate" /></g><g
     inkscape:groupmode="layer"
     id="layer3"
     inkscape:label="template"
     sodipodi:insensitive="true"
     transform="translate(-186.58356,-181.96777)"><rect
       inkscape:label="0"
       y="172"
       x="0"
       height="128"
       width="128"
       id="hicolor"
       style="display:inline;overflow:visible;visibility:visible;fill:#f0f0f0;fill-opacity:0;fill-rule:nonzero;stroke:none;stroke-width:0.5;marker:none;enable-background:accumulate" /><rect
       style="display:inline;overflow:visible;visibility:visible;fill:#f0f0f0;fill-opacity:0;fill-rule:nonzero;stroke:none;stroke-width:0.5;marker:none;enable-background:accumulate"
       id="symbolic"
       width="16"
       height="16"
       x="160"
       y="172"
       inkscape:label="0" /></g><g
     inkscape:groupmode="layer"
     id="layer9"
     inkscape:label="icons"
     style="display:inline"
     transform="translate(-186.58356,-181.96777)" /></svg>
