<?xml version="1.0" encoding="UTF-8" standalone="no"?>
<svg
   height="128px"
   width="128px"
   viewBox="0 0 128 128"
   version="1.1"
   id="svg17"
   sodipodi:docname="photo.svg"
   xml:space="preserve"
   inkscape:version="1.3.2 (091e20ef0f, 2023-11-25)"
   xmlns:inkscape="http://www.inkscape.org/namespaces/inkscape"
   xmlns:sodipodi="http://sodipodi.sourceforge.net/DTD/sodipodi-0.dtd"
   xmlns:xlink="http://www.w3.org/1999/xlink"
   xmlns="http://www.w3.org/2000/svg"
   xmlns:svg="http://www.w3.org/2000/svg"><sodipodi:namedview
     id="namedview17"
     pagecolor="#ffffff"
     bordercolor="#000000"
     borderopacity="0.25"
     inkscape:showpageshadow="2"
     inkscape:pageopacity="0.0"
     inkscape:pagecheckerboard="0"
     inkscape:deskcolor="#d1d1d1"
     showguides="false"
     inkscape:zoom="3.586652"
     inkscape:cx="40.009458"
     inkscape:cy="70.260511"
     inkscape:window-width="1536"
     inkscape:window-height="795"
     inkscape:window-x="0"
     inkscape:window-y="0"
     inkscape:window-maximized="1"
     inkscape:current-layer="layer9" /><defs
     id="defs2"><linearGradient
       id="linearGradient25"
       inkscape:collect="always"><stop
         style="stop-color:#b9d4f3;stop-opacity:1;"
         offset="0"
         id="stop25" /><stop
         style="stop-color:#7eafe5;stop-opacity:1;"
         offset="1"
         id="stop26" /></linearGradient><linearGradient
       gradientUnits="userSpaceOnUse"
       x1="63.747"
       y1="15.186"
       x2="63.747"
       y2="97.254"
       id="gradient-0"
       gradientTransform="matrix(1.002745, -0.000785, 0.004793, 6.134053, 2.84547, -136.938487)"><stop
         offset="0"
         style="stop-color:#c3e0f2;stop-opacity:1;"
         id="stop1" /><stop
         offset="1"
         style="stop-color: rgb(9, 28, 53);"
         id="stop2" /></linearGradient><linearGradient
       inkscape:collect="always"
       id="linearGradient963"><stop
         style="stop-color:#eef4fc;stop-opacity:1"
         offset="0"
         id="stop959" /><stop
         style="stop-color:#ffffff;stop-opacity:1"
         offset="1"
         id="stop961" /></linearGradient><linearGradient
       inkscape:collect="always"
       xlink:href="#linearGradient963"
       id="linearGradient22"
       gradientUnits="userSpaceOnUse"
       gradientTransform="matrix(1.6495159,0,0,1.6495159,-58.204837,94.910613)"
       x1="85"
       y1="107.16245"
       x2="85"
       y2="86" /><linearGradient
       inkscape:collect="always"
       xlink:href="#linearGradient25"
       id="linearGradient26"
       x1="63.437279"
       y1="11.736601"
       x2="62.460228"
       y2="105.30669"
       gradientUnits="userSpaceOnUse" /></defs><filter
     id="g"
     height="1"
     width="1"
     x="0"
     y="0"><feColorMatrix
       in="SourceGraphic"
       type="matrix"
       values="0 0 0 0 1 0 0 0 0 1 0 0 0 0 1 0 0 0 1 0"
       id="feColorMatrix2" /></filter><linearGradient
     id="i"
     gradientUnits="userSpaceOnUse"><stop
       offset="0"
       stop-color="#ffffff"
       id="stop3" /><stop
       offset="1"
       stop-color="#ffffff"
       stop-opacity="0"
       id="stop4" /></linearGradient><clipPath
     id="B"><path
       d="m 22 42 h 60 v 61 h -60 z m 0 0"
       id="path4" /></clipPath><clipPath
     id="C"><path
       d="m 22.0625 72.179688 c 0 16.535156 13.402344 29.9375 29.9375 29.9375 s 29.9375 -13.402344 29.9375 -29.9375 c 0 -16.535157 -13.402344 -29.9375 -29.9375 -29.9375 s -29.9375 13.402343 -29.9375 29.9375 z m 0 0"
       id="path5" /></clipPath><mask
     id="D"><g
       filter="url(#g)"
       id="g5"><rect
         fill-opacity="0.768678"
         height="128"
         width="128"
         id="rect5" /></g></mask><linearGradient
     id="E"
     gradientTransform="matrix(0 1.714284 -1.714284 0 501.142633 10.057194)"
     x1="24"
     x2="38"
     y1="238"
     y2="238"
     xlink:href="#i" /><clipPath
     id="F"><rect
       height="152"
       width="192"
       id="rect6" /></clipPath><path
     d="M 14.251 6.05 L 113.543 6.05 C 118.527 6.05 122.569 10.048 122.569 14.973 L 122.569 84.263 L 84.843 122.03 L 14.251 122.03 C 9.264 122.03 5.22 118.032 5.22 113.106 L 5.22 14.973 C 5.22 10.048 9.264 6.05 14.251 6.05 Z M 14.251 6.05"
     fill="#f6f5f4"
     style=""
     id="path6" /><path
     d="M 111.284 14.973 L 16.506 14.973 C 15.258 14.973 14.251 15.973 14.251 17.2 L 14.251 95.034 C 14.251 96.269 15.258 97.265 16.506 97.265 L 108.324 97.265 L 109.757 95.492 C 111.005 95.492 112.016 94.495 112.016 93.26 L 113.543 92.605 L 113.543 17.2 C 113.543 15.973 112.532 14.973 111.284 14.973 Z M 111.284 14.973"
     style="fill:url(#linearGradient26);fill-opacity:1"
     id="path7" /><clipPath
     id="f"><path
       d="m 88 88 h 28 v 28 h -28 z m 0 0"
       id="path14" /></clipPath><clipPath
     id="clip-1"><path
       d="m 116 88 l -28 28 h -8 v -36 h 36 z m 0 0"
       id="path15" /></clipPath><linearGradient
     id="h"
     gradientTransform="matrix(0, 0.25, 0.25, 0, 83, 16.000001)"
     gradientUnits="userSpaceOnUse"
     x1="344"
     x2="336"
     y1="76"
     y2="68"><stop
       offset="0"
       style="stop-color:#cccccc;stop-opacity:1;"
       id="stop15" /><stop
       offset="1"
       style="stop-color:#dcdcdc;stop-opacity:1;"
       id="stop16" /></linearGradient><rect
     style="color:#bebebe;display:inline;overflow:visible;visibility:visible;opacity:0.514644;fill:none;stroke:none;stroke-width:0.79375;marker:none;enable-background:accumulate"
     id="rect1555-9"
     width="289.193"
     height="289.193"
     x="444.913"
     y="124.629" /><g
     clip-path="url(#f)"
     transform="matrix(1.351496, 0, 0, 1.351496, -34.201405, -34.691277)"
     id="g17"
     style=""><g
       clip-path="url(#clip-1)"
       id="g16"><path
         d="M 88 96 L 88 116.2 C 88 120.618 91.582 124 96 124 L 116 124 C 120.418 124 124 120.418 124 116 L 124 96 C 124 91.582 120.418 88 116 88 L 96 88 C 91.582 88 88 91.582 88 96 Z M 88 96"
         fill="url(#h)"
         id="path16" /></g></g><g
     inkscape:groupmode="layer"
     id="layer2"
     inkscape:label="baseplate"
     style="display:none"
     sodipodi:insensitive="true"
     transform="translate(-186.58356,-181.96777)"><g
       style="display:inline;fill:#000000;enable-background:new"
       transform="matrix(7.9911709,0,0,8.0036407,-167.7909,-4846.0776)"
       id="g12027"
       inkscape:export-xdpi="12"
       inkscape:export-ydpi="12" /><rect
       style="display:inline;overflow:visible;visibility:visible;fill:#f0f0f0;fill-opacity:1;fill-rule:nonzero;stroke:none;stroke-width:0.5;marker:none;enable-background:accumulate"
       id="rect13805"
       width="128"
       height="128"
       x="9.2651362e-08"
       y="172"
       inkscape:label="512x512" /><g
       id="g883"
       style="fill:none;fill-opacity:0.25098;stroke:#a579b3;stroke-opacity:1"
       transform="translate(-24,24)" /><g
       id="g900"
       style="fill:none;fill-opacity:0.25098;stroke:#a579b3;stroke-opacity:1"
       transform="translate(-24,24)" /><g
       id="g1168"
       transform="matrix(0.25,0,0,0.25,6.9488522e-8,225)"><rect
         ry="32"
         rx="32"
         y="-180"
         x="96"
         height="448"
         width="319.99979"
         id="rect1110"
         style="opacity:0.1;fill:#2864b0;fill-opacity:1;stroke:none;stroke-width:1;stroke-linecap:butt;stroke-linejoin:miter;stroke-miterlimit:4;stroke-dasharray:none;stroke-dashoffset:0;stroke-opacity:1;marker:none;marker-start:none;marker-mid:none;marker-end:none;paint-order:normal" /><rect
         ry="32"
         rx="32"
         y="-164"
         x="48"
         height="416"
         width="416"
         id="rect1110-8"
         style="display:inline;opacity:0.1;fill:#2864b0;fill-opacity:1;stroke:none;stroke-width:1;stroke-linecap:butt;stroke-linejoin:miter;stroke-miterlimit:4;stroke-dasharray:none;stroke-dashoffset:0;stroke-opacity:1;marker:none;marker-start:none;marker-mid:none;marker-end:none;paint-order:normal;enable-background:new" /><rect
         ry="32"
         rx="32"
         y="-116"
         x="32"
         height="320"
         width="448"
         id="rect1110-8-9"
         style="display:inline;opacity:0.1;fill:#2864b0;fill-opacity:1;stroke:none;stroke-width:1;stroke-linecap:butt;stroke-linejoin:miter;stroke-miterlimit:4;stroke-dasharray:none;stroke-dashoffset:0;stroke-opacity:1;marker:none;marker-start:none;marker-mid:none;marker-end:none;paint-order:normal;enable-background:new" /><circle
         cx="256"
         cy="44"
         r="240"
         id="path1142"
         style="opacity:0.1;fill:#2864b0;fill-opacity:1;stroke:none;stroke-width:1;stroke-linecap:butt;stroke-linejoin:miter;stroke-miterlimit:4;stroke-dasharray:none;stroke-dashoffset:0;stroke-opacity:1;marker:none;marker-start:none;marker-mid:none;marker-end:none;paint-order:normal" /></g><rect
       inkscape:label="0"
       y="172"
       x="160"
       height="16"
       width="16"
       id="symbolic-3"
       style="display:inline;overflow:visible;visibility:visible;fill:#f0f0f0;fill-opacity:1;fill-rule:nonzero;stroke:none;stroke-width:0.5;marker:none;enable-background:accumulate" /></g><g
     inkscape:groupmode="layer"
     id="layer3"
     inkscape:label="template"
     sodipodi:insensitive="true"
     transform="translate(-186.58356,-181.96777)"><rect
       inkscape:label="0"
       y="172"
       x="0"
       height="128"
       width="128"
       id="hicolor"
       style="display:inline;overflow:visible;visibility:visible;fill:#f0f0f0;fill-opacity:0;fill-rule:nonzero;stroke:none;stroke-width:0.5;marker:none;enable-background:accumulate" /><rect
       style="display:inline;overflow:visible;visibility:visible;fill:#f0f0f0;fill-opacity:0;fill-rule:nonzero;stroke:none;stroke-width:0.5;marker:none;enable-background:accumulate"
       id="symbolic"
       width="16"
       height="16"
       x="160"
       y="172"
       inkscape:label="0" /></g><g
     inkscape:groupmode="layer"
     id="layer9"
     inkscape:label="icons"
     style="display:inline"
     transform="translate(-186.58356,-181.96777)"><g
       id="g22"
       transform="matrix(-0.60125473,0,0,0.60125473,300.38776,92.508201)"><path
         style="display:inline;opacity:1;fill:url(#linearGradient22);fill-opacity:1;stroke:none;stroke-width:0.989709;stroke-linecap:round;stroke-linejoin:round;stroke-miterlimit:4;stroke-dasharray:none;stroke-dashoffset:1;stroke-opacity:1;enable-background:new"
         d="m 100.14869,200.47963 c -12.886189,0.0137 -24.583528,7.53193 -29.952255,19.2465 -3.490057,-1.79931 -7.359071,-2.74291 -11.285645,-2.75135 -13.015752,0.0137 -23.793381,10.10948 -24.658972,23.09645 -0.02748,-0.001 -0.05628,-0.001 -0.08378,-0.003 -9.110026,0 -16.495159,7.38515 -16.495159,16.49516 0,9.11003 7.385133,16.49517 16.495159,16.49517 h 92.372902 a 19.794189,19.794189 0 0 0 19.7942,-19.7942 19.794189,19.794189 0 0 0 -13.25414,-18.66015 c 0.0254,-0.37739 0.0456,-0.75598 0.058,-1.13402 3e-5,-18.21999 -14.77025,-32.99027 -32.99029,-32.99027 z"
         id="path1781"
         inkscape:connector-curvature="0" /></g></g></svg>
